<?xml version="1.0" encoding="iso-8859-1"?>
<!-- Generator: Adobe Illustrator 16.0.0, SVG Export Plug-In . SVG Version: 6.00 Build 0)  -->
<!DOCTYPE svg PUBLIC "-//W3C//DTD SVG 1.1//EN" "http://www.w3.org/Graphics/SVG/1.1/DTD/svg11.dtd">
<svg xmlns="http://www.w3.org/2000/svg" xmlns:xlink="http://www.w3.org/1999/xlink" version="1.1" id="Capa_1" x="0px" y="0px" width="512px" height="512px" viewBox="0 0 391.984 391.984" style="enable-background:new 0 0 391.984 391.984;" xml:space="preserve">
<g>
	<g>
		<path d="M117.884,226.469c-1.893-2.007-1.893-5.292,0-7.3l33.506-35.541c1.893-2.007,2.133-5.49,0.535-7.739l-3.373-4.749    c-1.598-2.249-4.467-2.459-6.373-0.466l-46.463,48.522c-1.908,1.991-1.908,5.252,0,7.246l46.463,48.519    c1.908,1.993,4.775,1.782,6.373-0.466l3.375-4.75c1.598-2.25,1.355-5.731-0.537-7.738L117.884,226.469z" fill="#FFFFFF"/>
		<path d="M218.82,166.146h-6.235c-2.759,0-5.759,2.132-6.664,4.738L169.796,274.75c-0.906,2.605,0.611,4.738,3.369,4.738h6.232    c2.758,0,5.758-2.133,6.664-4.738l36.126-103.865C223.095,168.278,221.578,166.146,218.82,166.146z" fill="#FFFFFF"/>
		<path d="M249.81,170.674c-1.908-1.993-4.774-1.783-6.373,0.466l-3.373,4.749c-1.598,2.249-1.356,5.732,0.535,7.739l33.508,35.541    c1.894,2.008,1.894,5.293,0,7.3l-33.508,35.538c-1.893,2.007-2.133,5.488-0.535,7.738l3.373,4.75    c1.599,2.248,4.465,2.459,6.373,0.465l46.463-48.519c1.908-1.993,1.906-5.254,0-7.245L249.81,170.674z" fill="#FFFFFF"/>
		<path d="M368.701,31.839H23.283C10.445,31.839,0,42.284,0,55.123v281.738c0,12.839,10.445,23.284,23.283,23.284h345.418    c12.84,0,23.283-10.445,23.283-23.284V55.123C391.986,42.285,381.541,31.839,368.701,31.839z M161.153,61.15    c0-2.923,2.393-5.315,5.314-5.315h31.87c2.923,0,5.313,2.392,5.313,5.315v9.994c0,2.923-2.392,5.315-5.313,5.315h-31.87    c-2.922,0-5.314-2.392-5.314-5.315V61.15z M95.718,61.15c0-2.923,2.392-5.315,5.314-5.315h31.869c2.923,0,5.314,2.392,5.314,5.315    v9.994c0,2.923-2.392,5.315-5.314,5.315h-31.869c-2.923,0-5.314-2.392-5.314-5.315V61.15z M31.939,61.15    c0-2.923,2.392-5.315,5.314-5.315h31.869c2.923,0,5.314,2.392,5.314,5.315v9.994c0,2.923-2.392,5.315-5.314,5.315H37.253    c-2.923,0-5.314-2.392-5.314-5.315V61.15z M373.357,333.797c0,3.065-2.532,5.573-5.625,5.573H24.254    c-3.094,0-5.625-2.508-5.625-5.573V101.669c0-3.065,2.531-5.573,5.625-5.573h343.479c3.093,0,5.625,2.508,5.625,5.573V333.797    L373.357,333.797z" fill="#FFFFFF"/>
	</g>
</g>
<g>
</g>
<g>
</g>
<g>
</g>
<g>
</g>
<g>
</g>
<g>
</g>
<g>
</g>
<g>
</g>
<g>
</g>
<g>
</g>
<g>
</g>
<g>
</g>
<g>
</g>
<g>
</g>
<g>
</g>
</svg>
